# xmcd
#
# Track frame offsets: 
#        151
#        8646
#        17621
#        26453
#        36154
#        49531
#        62885
#        74676
#        84814
#        98609
#        111764
#        126798
#        137380
#        145481
#        154083
#        165768
#        176137
#        185950
#        195256
#        206094
#
# Disc length: 2881 seconds
#
# Revision: 1
# Processed by: cddbd v1.5.2PL0 Copyright (c) Steve Scherf et al.
# Submitted via: ExactAudioCopy v1.1
#
DISCID=060b3f14
DTITLE=Various Artist - SwingWest! Volume 2: Guitar Slingers
DYEAR=1999
DGENRE=Country
TTITLE0=Jimmy Bryant - Little Rock Getaway
TTITLE1=Merle Haggard and The Strangers - Champagne
TTITLE2=Merle Travis - Cannonball Rag
TTITLE3=Les Paul - Chicken Reel
TTITLE4=Hank Thompson and His Brazos Valley Boys with Merle Travis - Wil
TTITLE4=dwood Flower
TTITLE5=Tut Taylor with Clarence White - Fool Such As I
TTITLE6=Joe Maphis (King Of The Strings) - Fire On The Strings
TTITLE7=Jimmy Bryant and Speedy West - T-Bone Rag
TTITLE8=Merle Travis - Merle's Boogie Woogie
TTITLE9=Ferlin Husky - Caravan
TTITLE10=Roy Lanham - A Smooth One
TTITLE11=Merle Travis and Joe Maphis - Blast Off
TTITLE12=James Burton and Ralph Mooney - Corn Pickin'
TTITLE13=Glen Campbell - 12-String Special
TTITLE14=Roy Clark - Dented Fender
TTITLE15=Jimmy Bryant and Speedy West - Lover
TTITLE16=Les Paul - San Antonio Rose
TTITLE17=Roy Clark - Alabama Jubilee
TTITLE18=Merle Haggard and The Strangers - Swing High
TTITLE19=Speedy West with Jimmy Bryant - Water Baby Blues
EXTD=
EXTT0=
EXTT1=
EXTT2=
EXTT3=
EXTT4=
EXTT5=
EXTT6=
EXTT7=
EXTT8=
EXTT9=
EXTT10=
EXTT11=
EXTT12=
EXTT13=
EXTT14=
EXTT15=
EXTT16=
EXTT17=
EXTT18=
EXTT19=
PLAYORDER=
